<mxfile host="app.diagrams.net" modified="2023-05-11T09:41:50.317Z" agent="Mozilla/5.0 (Windows NT 10.0; Win64; x64) AppleWebKit/537.36 (KHTML, like Gecko) Chrome/112.0.0.0 Safari/537.36" version="21.2.9" etag="NYZNcO6k1EcTq1qHnvGV" type="device">
  <diagram id="cO9kJfEXH4wY8_utXuk5" name="Страница 1">
    <mxGraphModel dx="2086" dy="1149" grid="1" gridSize="10" guides="1" tooltips="1" connect="1" arrows="1" fold="1" page="1" pageScale="1" pageWidth="2336" pageHeight="1654" math="0" shadow="0">
      <root>
        <mxCell id="0" />
        <mxCell id="1" parent="0" />
        <mxCell id="hkxogA_mCvFXjX1prvVK-1" value="Локальная сеть" style="rounded=0;whiteSpace=wrap;html=1;fontSize=48;fillColor=none;fontFamily=Courier New;" vertex="1" parent="1">
          <mxGeometry x="360" y="480" width="880" height="80" as="geometry" />
        </mxCell>
        <mxCell id="hkxogA_mCvFXjX1prvVK-2" value="" style="endArrow=none;html=1;rounded=0;fontFamily=Courier New;fontSize=48;" edge="1" parent="1">
          <mxGeometry width="50" height="50" relative="1" as="geometry">
            <mxPoint x="1240" y="560" as="sourcePoint" />
            <mxPoint x="1280" y="520" as="targetPoint" />
          </mxGeometry>
        </mxCell>
        <mxCell id="hkxogA_mCvFXjX1prvVK-3" value="" style="endArrow=none;html=1;rounded=0;exitX=1;exitY=0;exitDx=0;exitDy=0;fontFamily=Courier New;fontSize=48;" edge="1" parent="1" source="hkxogA_mCvFXjX1prvVK-1">
          <mxGeometry width="50" height="50" relative="1" as="geometry">
            <mxPoint x="1860" y="470" as="sourcePoint" />
            <mxPoint x="1280" y="440" as="targetPoint" />
          </mxGeometry>
        </mxCell>
        <mxCell id="hkxogA_mCvFXjX1prvVK-4" value="" style="endArrow=none;html=1;rounded=0;fontFamily=Courier New;fontSize=48;" edge="1" parent="1">
          <mxGeometry width="50" height="50" relative="1" as="geometry">
            <mxPoint x="1280" y="520" as="sourcePoint" />
            <mxPoint x="1280" y="440" as="targetPoint" />
          </mxGeometry>
        </mxCell>
        <mxCell id="hkxogA_mCvFXjX1prvVK-5" value="" style="endArrow=none;html=1;rounded=0;fontFamily=Courier New;fontSize=48;" edge="1" parent="1">
          <mxGeometry width="50" height="50" relative="1" as="geometry">
            <mxPoint x="400" y="440" as="sourcePoint" />
            <mxPoint x="1280" y="440" as="targetPoint" />
          </mxGeometry>
        </mxCell>
        <mxCell id="hkxogA_mCvFXjX1prvVK-6" value="" style="endArrow=none;html=1;rounded=0;fontFamily=Courier New;fontSize=48;" edge="1" parent="1">
          <mxGeometry width="50" height="50" relative="1" as="geometry">
            <mxPoint x="360" y="480" as="sourcePoint" />
            <mxPoint x="400" y="440" as="targetPoint" />
          </mxGeometry>
        </mxCell>
        <mxCell id="hkxogA_mCvFXjX1prvVK-7" value="Компьютер СПО" style="rounded=0;whiteSpace=wrap;html=1;fontSize=36;fontFamily=Courier New;" vertex="1" parent="1">
          <mxGeometry x="440" y="80" width="280" height="120" as="geometry" />
        </mxCell>
        <mxCell id="hkxogA_mCvFXjX1prvVK-8" value="" style="endArrow=none;html=1;rounded=0;exitX=0;exitY=1;exitDx=0;exitDy=0;fontFamily=Courier New;fontSize=48;" edge="1" parent="1" source="hkxogA_mCvFXjX1prvVK-7">
          <mxGeometry width="50" height="50" relative="1" as="geometry">
            <mxPoint x="720" y="240" as="sourcePoint" />
            <mxPoint x="440" y="360" as="targetPoint" />
          </mxGeometry>
        </mxCell>
        <mxCell id="hkxogA_mCvFXjX1prvVK-9" value="" style="endArrow=none;html=1;rounded=0;entryX=1;entryY=1;entryDx=0;entryDy=0;fontFamily=Courier New;fontSize=48;" edge="1" parent="1" target="hkxogA_mCvFXjX1prvVK-7">
          <mxGeometry width="50" height="50" relative="1" as="geometry">
            <mxPoint x="720" y="360" as="sourcePoint" />
            <mxPoint x="450" y="380" as="targetPoint" />
          </mxGeometry>
        </mxCell>
        <mxCell id="hkxogA_mCvFXjX1prvVK-10" value="" style="endArrow=none;html=1;rounded=0;fontFamily=Courier New;fontSize=48;" edge="1" parent="1">
          <mxGeometry width="50" height="50" relative="1" as="geometry">
            <mxPoint x="440" y="360" as="sourcePoint" />
            <mxPoint x="720" y="360" as="targetPoint" />
          </mxGeometry>
        </mxCell>
        <mxCell id="hkxogA_mCvFXjX1prvVK-11" value="&lt;br&gt;IDE.exe" style="shape=module;align=left;spacingLeft=20;align=center;verticalAlign=top;whiteSpace=wrap;html=1;fontFamily=Courier New;fontSize=24;jettyWidth=52;jettyHeight=19;fontStyle=1" vertex="1" parent="1">
          <mxGeometry x="460" y="240" width="220" height="90" as="geometry" />
        </mxCell>
        <mxCell id="hkxogA_mCvFXjX1prvVK-12" value="" style="endArrow=none;html=1;rounded=0;" edge="1" parent="1">
          <mxGeometry width="50" height="50" relative="1" as="geometry">
            <mxPoint x="600" y="460" as="sourcePoint" />
            <mxPoint x="600" y="360" as="targetPoint" />
          </mxGeometry>
        </mxCell>
        <mxCell id="hkxogA_mCvFXjX1prvVK-13" value="" style="endArrow=none;html=1;rounded=0;" edge="1" parent="1">
          <mxGeometry width="50" height="50" relative="1" as="geometry">
            <mxPoint x="720" y="360" as="sourcePoint" />
            <mxPoint x="760" y="320" as="targetPoint" />
          </mxGeometry>
        </mxCell>
        <mxCell id="hkxogA_mCvFXjX1prvVK-14" value="" style="endArrow=none;html=1;rounded=0;" edge="1" parent="1">
          <mxGeometry width="50" height="50" relative="1" as="geometry">
            <mxPoint x="720" y="80" as="sourcePoint" />
            <mxPoint x="760" y="40" as="targetPoint" />
          </mxGeometry>
        </mxCell>
        <mxCell id="hkxogA_mCvFXjX1prvVK-15" value="" style="endArrow=none;html=1;rounded=0;" edge="1" parent="1">
          <mxGeometry width="50" height="50" relative="1" as="geometry">
            <mxPoint x="440" y="80" as="sourcePoint" />
            <mxPoint x="480" y="40" as="targetPoint" />
          </mxGeometry>
        </mxCell>
        <mxCell id="hkxogA_mCvFXjX1prvVK-16" value="" style="endArrow=none;html=1;rounded=0;" edge="1" parent="1">
          <mxGeometry width="50" height="50" relative="1" as="geometry">
            <mxPoint x="760" y="40" as="sourcePoint" />
            <mxPoint x="760" y="320" as="targetPoint" />
          </mxGeometry>
        </mxCell>
        <mxCell id="hkxogA_mCvFXjX1prvVK-17" value="" style="endArrow=none;html=1;rounded=0;" edge="1" parent="1">
          <mxGeometry width="50" height="50" relative="1" as="geometry">
            <mxPoint x="480" y="40" as="sourcePoint" />
            <mxPoint x="760" y="40" as="targetPoint" />
          </mxGeometry>
        </mxCell>
        <mxCell id="hkxogA_mCvFXjX1prvVK-19" value="" style="endArrow=none;html=1;rounded=0;exitX=0;exitY=1;exitDx=0;exitDy=0;fontFamily=Courier New;fontSize=48;" edge="1" parent="1">
          <mxGeometry width="50" height="50" relative="1" as="geometry">
            <mxPoint x="400" y="800.0000000000002" as="sourcePoint" />
            <mxPoint x="400" y="960" as="targetPoint" />
          </mxGeometry>
        </mxCell>
        <mxCell id="hkxogA_mCvFXjX1prvVK-20" value="" style="endArrow=none;html=1;rounded=0;entryX=1;entryY=1;entryDx=0;entryDy=0;fontFamily=Courier New;fontSize=48;" edge="1" parent="1">
          <mxGeometry width="50" height="50" relative="1" as="geometry">
            <mxPoint x="680" y="960" as="sourcePoint" />
            <mxPoint x="680" y="800.0000000000002" as="targetPoint" />
          </mxGeometry>
        </mxCell>
        <mxCell id="hkxogA_mCvFXjX1prvVK-21" value="" style="endArrow=none;html=1;rounded=0;fontFamily=Courier New;fontSize=48;" edge="1" parent="1">
          <mxGeometry width="50" height="50" relative="1" as="geometry">
            <mxPoint x="400" y="960" as="sourcePoint" />
            <mxPoint x="680" y="960" as="targetPoint" />
          </mxGeometry>
        </mxCell>
        <mxCell id="hkxogA_mCvFXjX1prvVK-22" value="&lt;br style=&quot;font-size: 24px;&quot;&gt;&lt;div style=&quot;font-size: 24px;&quot;&gt;&lt;span style=&quot;background-color: initial; font-size: 24px;&quot;&gt;&amp;nbsp; Server.exe&lt;/span&gt;&lt;/div&gt;" style="shape=module;align=right;spacingLeft=20;align=center;verticalAlign=top;whiteSpace=wrap;html=1;fontFamily=Courier New;fontSize=24;jettyWidth=52;jettyHeight=19;fontStyle=1" vertex="1" parent="1">
          <mxGeometry x="420" y="840" width="220" height="90" as="geometry" />
        </mxCell>
        <mxCell id="hkxogA_mCvFXjX1prvVK-23" value="" style="endArrow=none;html=1;rounded=0;" edge="1" parent="1">
          <mxGeometry width="50" height="50" relative="1" as="geometry">
            <mxPoint x="680" y="960" as="sourcePoint" />
            <mxPoint x="720" y="920" as="targetPoint" />
          </mxGeometry>
        </mxCell>
        <mxCell id="hkxogA_mCvFXjX1prvVK-24" value="" style="endArrow=none;html=1;rounded=0;" edge="1" parent="1">
          <mxGeometry width="50" height="50" relative="1" as="geometry">
            <mxPoint x="680" y="680" as="sourcePoint" />
            <mxPoint x="720" y="640" as="targetPoint" />
          </mxGeometry>
        </mxCell>
        <mxCell id="hkxogA_mCvFXjX1prvVK-25" value="" style="endArrow=none;html=1;rounded=0;" edge="1" parent="1">
          <mxGeometry width="50" height="50" relative="1" as="geometry">
            <mxPoint x="400" y="680" as="sourcePoint" />
            <mxPoint x="440" y="640" as="targetPoint" />
          </mxGeometry>
        </mxCell>
        <mxCell id="hkxogA_mCvFXjX1prvVK-26" value="" style="endArrow=none;html=1;rounded=0;" edge="1" parent="1">
          <mxGeometry width="50" height="50" relative="1" as="geometry">
            <mxPoint x="720" y="640" as="sourcePoint" />
            <mxPoint x="720" y="920" as="targetPoint" />
          </mxGeometry>
        </mxCell>
        <mxCell id="hkxogA_mCvFXjX1prvVK-27" value="" style="endArrow=none;html=1;rounded=0;" edge="1" parent="1">
          <mxGeometry width="50" height="50" relative="1" as="geometry">
            <mxPoint x="440" y="640" as="sourcePoint" />
            <mxPoint x="720" y="640" as="targetPoint" />
          </mxGeometry>
        </mxCell>
        <mxCell id="hkxogA_mCvFXjX1prvVK-28" value="" style="endArrow=none;html=1;rounded=0;" edge="1" parent="1">
          <mxGeometry width="50" height="50" relative="1" as="geometry">
            <mxPoint x="560" y="660" as="sourcePoint" />
            <mxPoint x="560" y="560" as="targetPoint" />
          </mxGeometry>
        </mxCell>
        <mxCell id="hkxogA_mCvFXjX1prvVK-29" value="Главный сервер моделирования" style="rounded=0;whiteSpace=wrap;html=1;fontSize=28;fontFamily=Courier New;" vertex="1" parent="1">
          <mxGeometry x="400" y="680" width="280" height="120" as="geometry" />
        </mxCell>
        <mxCell id="hkxogA_mCvFXjX1prvVK-30" value="" style="endArrow=none;html=1;rounded=0;exitX=0;exitY=1;exitDx=0;exitDy=0;fontFamily=Courier New;fontSize=48;" edge="1" parent="1">
          <mxGeometry width="50" height="50" relative="1" as="geometry">
            <mxPoint x="918.95" y="200.00000000000023" as="sourcePoint" />
            <mxPoint x="918.95" y="360" as="targetPoint" />
          </mxGeometry>
        </mxCell>
        <mxCell id="hkxogA_mCvFXjX1prvVK-31" value="" style="endArrow=none;html=1;rounded=0;entryX=1;entryY=1;entryDx=0;entryDy=0;fontFamily=Courier New;fontSize=48;" edge="1" parent="1">
          <mxGeometry width="50" height="50" relative="1" as="geometry">
            <mxPoint x="1198.95" y="360" as="sourcePoint" />
            <mxPoint x="1198.95" y="200.00000000000023" as="targetPoint" />
          </mxGeometry>
        </mxCell>
        <mxCell id="hkxogA_mCvFXjX1prvVK-32" value="" style="endArrow=none;html=1;rounded=0;fontFamily=Courier New;fontSize=48;" edge="1" parent="1">
          <mxGeometry width="50" height="50" relative="1" as="geometry">
            <mxPoint x="918.95" y="360" as="sourcePoint" />
            <mxPoint x="1198.95" y="360" as="targetPoint" />
          </mxGeometry>
        </mxCell>
        <mxCell id="hkxogA_mCvFXjX1prvVK-33" value="&lt;div style=&quot;font-size: 24px;&quot;&gt;&lt;br&gt;&lt;/div&gt;&lt;div style=&quot;font-size: 24px;&quot;&gt;&lt;span style=&quot;background-color: initial; font-size: 24px;&quot;&gt;&amp;nbsp; Server1.exe&lt;/span&gt;&lt;/div&gt;" style="shape=module;align=right;spacingLeft=20;align=center;verticalAlign=top;whiteSpace=wrap;html=1;fontFamily=Courier New;fontSize=24;jettyWidth=52;jettyHeight=19;fontStyle=1" vertex="1" parent="1">
          <mxGeometry x="938.95" y="240" width="220" height="90" as="geometry" />
        </mxCell>
        <mxCell id="hkxogA_mCvFXjX1prvVK-34" value="" style="endArrow=none;html=1;rounded=0;" edge="1" parent="1">
          <mxGeometry width="50" height="50" relative="1" as="geometry">
            <mxPoint x="1198.95" y="360" as="sourcePoint" />
            <mxPoint x="1238.95" y="320" as="targetPoint" />
          </mxGeometry>
        </mxCell>
        <mxCell id="hkxogA_mCvFXjX1prvVK-35" value="" style="endArrow=none;html=1;rounded=0;" edge="1" parent="1">
          <mxGeometry width="50" height="50" relative="1" as="geometry">
            <mxPoint x="1198.95" y="80" as="sourcePoint" />
            <mxPoint x="1238.95" y="40" as="targetPoint" />
          </mxGeometry>
        </mxCell>
        <mxCell id="hkxogA_mCvFXjX1prvVK-36" value="" style="endArrow=none;html=1;rounded=0;" edge="1" parent="1">
          <mxGeometry width="50" height="50" relative="1" as="geometry">
            <mxPoint x="918.95" y="80" as="sourcePoint" />
            <mxPoint x="958.95" y="40" as="targetPoint" />
          </mxGeometry>
        </mxCell>
        <mxCell id="hkxogA_mCvFXjX1prvVK-37" value="" style="endArrow=none;html=1;rounded=0;" edge="1" parent="1">
          <mxGeometry width="50" height="50" relative="1" as="geometry">
            <mxPoint x="1238.95" y="40" as="sourcePoint" />
            <mxPoint x="1238.95" y="320" as="targetPoint" />
          </mxGeometry>
        </mxCell>
        <mxCell id="hkxogA_mCvFXjX1prvVK-38" value="" style="endArrow=none;html=1;rounded=0;" edge="1" parent="1">
          <mxGeometry width="50" height="50" relative="1" as="geometry">
            <mxPoint x="958.95" y="40" as="sourcePoint" />
            <mxPoint x="1238.95" y="40" as="targetPoint" />
          </mxGeometry>
        </mxCell>
        <mxCell id="hkxogA_mCvFXjX1prvVK-39" value="Вторичный сервер моделирования" style="rounded=0;whiteSpace=wrap;html=1;fontSize=26;fontFamily=Courier New;" vertex="1" parent="1">
          <mxGeometry x="918.95" y="80" width="280" height="120" as="geometry" />
        </mxCell>
        <mxCell id="hkxogA_mCvFXjX1prvVK-40" value="" style="endArrow=none;html=1;rounded=0;" edge="1" parent="1">
          <mxGeometry width="50" height="50" relative="1" as="geometry">
            <mxPoint x="1080" y="460" as="sourcePoint" />
            <mxPoint x="1080" y="360" as="targetPoint" />
          </mxGeometry>
        </mxCell>
        <mxCell id="hkxogA_mCvFXjX1prvVK-41" value="" style="endArrow=none;html=1;rounded=0;exitX=0;exitY=1;exitDx=0;exitDy=0;fontFamily=Courier New;fontSize=48;" edge="1" parent="1">
          <mxGeometry width="50" height="50" relative="1" as="geometry">
            <mxPoint x="877.9" y="800.0000000000002" as="sourcePoint" />
            <mxPoint x="877.9" y="960" as="targetPoint" />
          </mxGeometry>
        </mxCell>
        <mxCell id="hkxogA_mCvFXjX1prvVK-42" value="" style="endArrow=none;html=1;rounded=0;entryX=1;entryY=1;entryDx=0;entryDy=0;fontFamily=Courier New;fontSize=48;" edge="1" parent="1">
          <mxGeometry width="50" height="50" relative="1" as="geometry">
            <mxPoint x="1157.9" y="960" as="sourcePoint" />
            <mxPoint x="1157.9" y="800.0000000000002" as="targetPoint" />
          </mxGeometry>
        </mxCell>
        <mxCell id="hkxogA_mCvFXjX1prvVK-43" value="" style="endArrow=none;html=1;rounded=0;fontFamily=Courier New;fontSize=48;" edge="1" parent="1">
          <mxGeometry width="50" height="50" relative="1" as="geometry">
            <mxPoint x="877.9" y="960" as="sourcePoint" />
            <mxPoint x="1157.9" y="960" as="targetPoint" />
          </mxGeometry>
        </mxCell>
        <mxCell id="hkxogA_mCvFXjX1prvVK-44" value="&lt;div style=&quot;font-size: 24px;&quot;&gt;&lt;br style=&quot;font-size: 24px;&quot;&gt;&lt;/div&gt;&lt;div style=&quot;font-size: 24px;&quot;&gt;&lt;span style=&quot;background-color: initial; font-size: 24px;&quot;&gt;&amp;nbsp; Server2.exe&lt;/span&gt;&lt;/div&gt;" style="shape=module;align=right;spacingLeft=20;align=center;verticalAlign=top;whiteSpace=wrap;html=1;fontFamily=Courier New;fontSize=24;jettyWidth=52;jettyHeight=19;fontStyle=1" vertex="1" parent="1">
          <mxGeometry x="897.9" y="840" width="220" height="90" as="geometry" />
        </mxCell>
        <mxCell id="hkxogA_mCvFXjX1prvVK-45" value="" style="endArrow=none;html=1;rounded=0;" edge="1" parent="1">
          <mxGeometry width="50" height="50" relative="1" as="geometry">
            <mxPoint x="1157.9" y="960" as="sourcePoint" />
            <mxPoint x="1197.9" y="920" as="targetPoint" />
          </mxGeometry>
        </mxCell>
        <mxCell id="hkxogA_mCvFXjX1prvVK-46" value="" style="endArrow=none;html=1;rounded=0;" edge="1" parent="1">
          <mxGeometry width="50" height="50" relative="1" as="geometry">
            <mxPoint x="1157.9" y="680" as="sourcePoint" />
            <mxPoint x="1197.9" y="640" as="targetPoint" />
          </mxGeometry>
        </mxCell>
        <mxCell id="hkxogA_mCvFXjX1prvVK-47" value="" style="endArrow=none;html=1;rounded=0;" edge="1" parent="1">
          <mxGeometry width="50" height="50" relative="1" as="geometry">
            <mxPoint x="877.9" y="680" as="sourcePoint" />
            <mxPoint x="917.9" y="640" as="targetPoint" />
          </mxGeometry>
        </mxCell>
        <mxCell id="hkxogA_mCvFXjX1prvVK-48" value="" style="endArrow=none;html=1;rounded=0;" edge="1" parent="1">
          <mxGeometry width="50" height="50" relative="1" as="geometry">
            <mxPoint x="1197.9" y="640" as="sourcePoint" />
            <mxPoint x="1197.9" y="920" as="targetPoint" />
          </mxGeometry>
        </mxCell>
        <mxCell id="hkxogA_mCvFXjX1prvVK-49" value="" style="endArrow=none;html=1;rounded=0;" edge="1" parent="1">
          <mxGeometry width="50" height="50" relative="1" as="geometry">
            <mxPoint x="917.9" y="640" as="sourcePoint" />
            <mxPoint x="1197.9" y="640" as="targetPoint" />
          </mxGeometry>
        </mxCell>
        <mxCell id="hkxogA_mCvFXjX1prvVK-50" value="" style="endArrow=none;html=1;rounded=0;" edge="1" parent="1">
          <mxGeometry width="50" height="50" relative="1" as="geometry">
            <mxPoint x="1037.9" y="660" as="sourcePoint" />
            <mxPoint x="1037.9" y="560" as="targetPoint" />
          </mxGeometry>
        </mxCell>
        <mxCell id="hkxogA_mCvFXjX1prvVK-51" value="Вторичный сервер моделирования" style="rounded=0;whiteSpace=wrap;html=1;fontSize=26;fontFamily=Courier New;" vertex="1" parent="1">
          <mxGeometry x="877.9" y="680" width="280" height="120" as="geometry" />
        </mxCell>
        <mxCell id="hkxogA_mCvFXjX1prvVK-52" value="" style="endArrow=openThin;html=1;rounded=0;endSize=24;endFill=0;strokeWidth=2;dashed=1;" edge="1" parent="1" source="hkxogA_mCvFXjX1prvVK-11" target="hkxogA_mCvFXjX1prvVK-22">
          <mxGeometry width="50" height="50" relative="1" as="geometry">
            <mxPoint x="300" y="380" as="sourcePoint" />
            <mxPoint x="350" y="330" as="targetPoint" />
          </mxGeometry>
        </mxCell>
        <mxCell id="hkxogA_mCvFXjX1prvVK-53" value="" style="endArrow=openThin;html=1;rounded=0;endSize=24;endFill=0;strokeWidth=2;dashed=1;" edge="1" parent="1" source="hkxogA_mCvFXjX1prvVK-22" target="hkxogA_mCvFXjX1prvVK-33">
          <mxGeometry width="50" height="50" relative="1" as="geometry">
            <mxPoint x="577" y="340" as="sourcePoint" />
            <mxPoint x="543" y="850" as="targetPoint" />
          </mxGeometry>
        </mxCell>
        <mxCell id="hkxogA_mCvFXjX1prvVK-55" value="" style="endArrow=openThin;html=1;rounded=0;endSize=24;endFill=0;strokeWidth=2;dashed=1;" edge="1" parent="1" source="hkxogA_mCvFXjX1prvVK-22" target="hkxogA_mCvFXjX1prvVK-44">
          <mxGeometry width="50" height="50" relative="1" as="geometry">
            <mxPoint x="579" y="850" as="sourcePoint" />
            <mxPoint x="1020" y="340" as="targetPoint" />
          </mxGeometry>
        </mxCell>
      </root>
    </mxGraphModel>
  </diagram>
</mxfile>
